<svg xmlns="http://www.w3.org/2000/svg" xmlns:xlink="http://www.w3.org/1999/xlink" width="220.19660186767578" height="220.19662475585938" viewBox="0 0 220.19660186767578 220.19662475585938" fill="none">
<circle cx="110.09830205540662" cy="110.09830205540662" r="110.09830205540662" fill="#FF6155">
</circle>
<path d="M119.919 117.175C114.697 125.731 107.045 130.649 97.0101 131.714C91.8955 132.256 90.2345 130.797 90.2155 125.743C90.2084 123.886 90.2101 122.029 90.2119 119.976L90.2119 119.974C90.2127 118.982 90.2137 117.945 90.2137 116.839C88.8157 117.917 87.9004 118.459 87.1884 119.197C81.9986 124.578 80.2225 130.86 82.9493 137.941C85.5715 144.751 90.8505 148.202 98.0603 148.898C100.397 149.124 101.869 148.583 103.233 146.335C108.505 137.635 116.359 132.811 126.552 131.977L126.559 131.976C128.728 131.798 131.373 131.581 132.084 134.109C132.556 135.795 132.142 138.158 131.258 139.732C122.987 154.47 122.934 169.112 131.303 183.785C131.391 183.939 131.482 184.095 131.574 184.253C132.616 186.043 133.776 188.034 131.997 189.657C130.621 190.913 128.178 191.748 126.312 191.592C116.178 190.741 108.332 185.86 103.096 177.099C102.069 175.381 101.014 174.75 99.0379 174.732C95.8075 174.703 92.5314 174.539 89.3615 173.96C56.6378 167.975 35.5514 139.362 39.4393 106.35C42.7206 78.4892 68.6481 55.1034 96.7289 54.9537C116.701 54.8477 136.672 54.8762 156.644 54.9047C164.031 54.9152 171.417 54.9258 178.804 54.9295C182.802 54.9312 184.335 56.4668 184.215 60.4308C183.97 68.5282 181.942 76.1534 178.571 83.5467C176.69 87.6732 174.431 89.5627 169.59 89.2564C164.204 88.9163 158.794 88.9873 153.382 89.0583L153.382 89.0583C150.892 89.091 148.403 89.1236 145.916 89.1163C143.166 89.1084 141.546 90.4554 141.454 93.1433C141.358 95.8858 143.143 97.1999 145.706 97.5061C146.388 97.5873 147.081 97.571 147.775 97.5548C148.058 97.5482 148.341 97.5416 148.623 97.5416C153.346 97.5429 158.069 97.5427 163.197 97.5426C164.965 97.5425 166.781 97.5425 168.661 97.5425C167.17 98.9682 166.429 99.7295 165.633 100.428C153.923 110.71 140.158 115.108 124.726 114.483C122.344 114.387 121.138 115.177 119.919 117.175ZM114.727 78.8924C111.463 82.8641 111.522 86.6178 114.747 90.5809C116.311 92.5041 116.174 94.7101 114.259 96.3815C112.2 98.1783 110.065 97.7925 108.232 95.8832C105.338 92.8674 103.972 89.1933 103.726 85.0476C103.792 80.6658 105.183 76.7771 108.21 73.5693C110.038 71.6314 112.285 71.384 114.292 73.0857C116.208 74.7113 116.303 76.9735 114.727 78.8924ZM131.574 79.2383C128.504 83.5077 128.54 85.8703 131.671 90.3161C133.196 92.4816 133.299 94.5111 131.323 96.378C129.469 98.1299 127.106 97.8574 125.075 95.6859C122.229 92.6416 120.992 88.9268 120.718 84.5977C120.978 80.7497 122.114 77.015 124.93 73.9248C126.838 71.8313 129.403 71.365 131.199 72.9524C133.364 74.8644 133.208 76.9657 131.574 79.2383ZM145.18 72.0649C147.857 72.0268 149.698 73.7164 149.809 75.9744C149.926 78.3439 148.046 80.3527 145.676 80.3916C143.305 80.4306 141.286 78.4693 141.425 76.1127C141.574 73.5849 143.045 72.2682 145.18 72.0649Z" fill-rule="evenodd" fill="#FFE85F">
</path>
<path d="M59.2183 46.5336C53.9533 46.1858 48.6475 46.2827 43.3668 46.428C39.3995 46.537 37.3335 50.3262 39.8312 53.1811C43.8687 57.7939 46.4242 62.9569 47.3378 69.5724C54.9776 61.3219 63.4184 55.4823 73.517 51.2831C69.0097 48.1332 64.1945 46.8623 59.2183 46.5336Z" fill="#FFE85F">
</path>
<path d="M59.2183 46.5336C53.9533 46.1858 48.6475 46.2827 43.3668 46.428C39.3995 46.537 37.3335 50.3262 39.8312 53.1811C43.8687 57.7939 46.4242 62.9569 47.3378 69.5724C54.9776 61.3219 63.4184 55.4823 73.517 51.2831C69.0097 48.1332 64.1945 46.8623 59.2183 46.5336Z" fill="#FFE85F">
</path>
<path d="M131.323 96.378C133.299 94.5111 133.196 92.4816 131.671 90.3161C128.54 85.8703 128.504 83.5077 131.574 79.2383C133.208 76.9657 133.364 74.8644 131.199 72.9524C129.403 71.365 126.838 71.8313 124.93 73.9248C122.114 77.015 120.978 80.7497 120.718 84.5977C120.992 88.9268 122.229 92.6416 125.075 95.6859C127.106 97.8574 129.469 98.1299 131.323 96.378Z" fill="#FFFFFF">
</path>
<path d="M114.259 96.3815C116.174 94.7101 116.311 92.5041 114.747 90.5809C111.522 86.6178 111.463 82.8641 114.727 78.8923C116.303 76.9735 116.208 74.7112 114.292 73.0857C112.285 71.384 110.038 71.6314 108.21 73.5693C105.183 76.7771 103.793 80.6658 103.726 85.0476C103.972 89.1932 105.338 92.8674 108.232 95.8832C110.065 97.7925 112.2 98.1783 114.259 96.3815Z" fill="#FFFFFF">
</path>
<path d="M145.676 80.3916C148.046 80.3527 149.926 78.3438 149.809 75.9743C149.698 73.7163 147.857 72.0268 145.18 72.0648C143.045 72.2681 141.574 73.5849 141.425 76.1127C141.286 78.4693 143.305 80.4305 145.676 80.3916Z" fill="#FF6155">
</path>
<path d="M90.2137 116.839C90.2137 120.235 90.2042 122.989 90.2155 125.743C90.2336 130.509 91.7146 132.076 96.17 131.785L96.17 54.9719C68.3047 55.4261 42.699 78.6743 39.4393 106.35C35.5514 139.362 56.6386 167.975 89.3615 173.96C91.5961 174.368 93.8835 174.564 96.17 174.657L96.17 148.635C89.9291 147.547 85.3362 144.139 82.9493 137.941C80.2225 130.86 81.9986 124.579 87.1884 119.197C87.9004 118.459 88.8148 117.917 90.2137 116.839Z" fill="#FFC200">
</path>
<path d="M164.274 146.129C161.449 148.249 158.216 149.763 155.379 151.871C142.095 161.748 146.088 178.002 152.358 190.773C154.549 195.236 161.214 191.325 159.028 186.874C155.594 179.879 151.835 171.197 155.327 163.469C158.113 157.302 165.55 155.204 170.415 151.062C175.776 146.498 177.174 139.834 180.479 133.928C184.265 127.165 188.799 121.212 186.742 113.045C185.529 108.227 178.076 110.268 179.293 115.099C180.459 119.731 177.681 123.693 175.363 127.461C173.448 130.573 171.981 133.76 170.55 137.113C169.047 140.634 167.397 143.786 164.274 146.129Z" fill="#FFE85F">
</path>
<path d="M217.206 112.143C218.414 107.32 210.965 105.262 209.756 110.089C205.983 125.146 194.191 134.667 184.114 145.549C175.166 155.212 167.978 169.434 175.988 181.955C178.66 186.131 185.349 182.261 182.659 178.056C174.374 165.105 188.16 152.36 196.576 143.941C205.62 134.896 214.031 124.808 217.206 112.143Z" fill="#FFE85F">
</path>
<path d="M31.353 103.929C33.0452 99.963 27.2109 96.5069 25.5031 100.509C20.9267 111.232 22.7295 123.685 25.8388 134.601C29.0631 145.921 34.6569 156.293 42.0605 165.415C44.809 168.801 49.5766 163.982 46.8516 160.624C40.4739 152.766 35.6483 143.696 32.726 134.007C29.9627 124.847 27.4401 113.099 31.353 103.929Z" fill="#FFC200">
</path>
<path d="M123.69 176.098C119.551 172.11 116.27 167.423 114.165 162.057C112.371 157.48 104.898 159.472 106.717 164.11C109.316 170.741 113.086 176.608 118.228 181.56C121.809 185.01 127.279 179.555 123.69 176.098Z" fill="#FFFFFF">
</path>
</svg>